PathFileType	4	(X/Y/Z)	C:\Documents and Settings\rtobon\Desktop\NewMocap\New\NoT\ActorF_TPose.trc
DataRate	CameraRate	NumFrames	NumMarkers	Units	OrigDataRate	OrigDataStartFrame	OrigNumFrames
120.00	120.00	       7	49	mm	120.00	196	       260
Frame#	Time	Root			LtFtHip			LtBkHip			RtFtHip			RtBkHip			Spine1			Spine2			Spine3			SpineOffsetLow			SpineOffsetHigh			LtCtChest			RtCtChest			LtChest			RtChest			LtShoulder			LtBicep			LtElbow			LtForeArm			LtWrist			LtPinky			LtThumb			LtMiddFing			RtShoulder			RtBicep			RtElbow			RtForeArm			RtWrist			RtPinky			RtThumb			RtMiddFing			LtThigh			LtKnee			LtCalf			LtAnkle			LtHeel			LtBall			LtToe			RtThigh			RtKnee			RtCalf			RtAnkle			RtHeel			RtBall			RtToe			TopHead			LfFtHead			LtBkHead			RtFtHead			RtBkHead			
		X1	Y1	Z1	X2	Y2	Z2	X3	Y3	Z3	X4	Y4	Z4	X5	Y5	Z5	X6	Y6	Z6	X7	Y7	Z7	X8	Y8	Z8	X9	Y9	Z9	X10	Y10	Z10	X11	Y11	Z11	X12	Y12	Z12	X13	Y13	Z13	X14	Y14	Z14	X15	Y15	Z15	X16	Y16	Z16	X17	Y17	Z17	X18	Y18	Z18	X19	Y19	Z19	X20	Y20	Z20	X21	Y21	Z21	X22	Y22	Z22	X23	Y23	Z23	X24	Y24	Z24	X25	Y25	Z25	X26	Y26	Z26	X27	Y27	Z27	X28	Y28	Z28	X29	Y29	Z29	X30	Y30	Z30	X31	Y31	Z31	X32	Y32	Z32	X33	Y33	Z33	X34	Y34	Z34	X35	Y35	Z35	X36	Y36	Z36	X37	Y37	Z37	X38	Y38	Z38	X39	Y39	Z39	X40	Y40	Z40	X41	Y41	Z41	X42	Y42	Z42	X43	Y43	Z43	X44	Y44	Z44	X45	Y45	Z45	X46	Y46	Z46	X47	Y47	Z47	X48	Y48	Z48	X49	Y49	Z49	

196	1.625	13.20157	1104.04175	1286.32727	108.46742	1008.53717	1564.84241	108.85413	1070.37512	1286.25977	-162.46500	1028.98828	1535.07056	-115.18036	1069.58691	1270.86255	16.26484	1277.13733	1280.70300	16.00462	1412.41199	1285.69568	5.21417	1532.80457	1340.95251	-68.51614	1197.82019	1280.58997	145.41087	1357.41602	1289.55896	18.36577	1375.68896	1595.87573	-30.62700	1401.20667	1584.37134	99.90815	1450.96558	1570.21899	-102.19582	1449.78406	1561.95679	163.77679	1544.48218	1403.90503	336.09082	1521.07471	1440.34009	488.97958	1499.39160	1409.77625	596.87750	1492.91211	1460.99829	732.71606	1476.45068	1484.27148	788.26532	1421.68481	1449.62305	757.95929	1454.43884	1558.71301	790.98822	1473.23291	1490.18823	-168.86066	1552.10242	1435.67444	-346.55466	1503.26660	1415.78479	-449.37805	1486.13220	1401.52112	-598.58124	1470.42395	1445.32336	-713.76813	1454.15186	1458.38733	-777.71515	1405.23889	1435.65112	-758.82007	1449.42297	1534.60986	-787.55377	1455.93054	1468.59949	213.32771	737.91974	1466.40039	202.90286	578.19269	1416.26941	225.20441	337.03043	1348.40845	200.88605	147.24025	1339.88635	133.16251	50.97385	1269.96973	222.38850	54.98707	1444.01453	173.04497	46.54137	1542.79285	-255.73627	776.83203	1457.71509	-248.92940	551.26819	1434.07410	-271.21799	402.79468	1377.16907	-247.67091	151.39041	1351.39600	-173.85495	52.14514	1263.52344	-277.01096	53.30648	1437.61987	-222.03069	54.31554	1529.11560	-17.32581	1781.28894	1465.56409	51.42241	1715.89343	1593.89404	69.75693	1655.97473	1416.66089	-70.85162	1703.55383	1583.05396	-78.85828	1638.17004	1410.67029	
197	1.633	13.20157	1104.04175	1286.32727	108.37111	1008.48438	1564.80762	108.78922	1070.35156	1286.42578	-162.54655	1028.97131	1535.12390	-115.36792	1069.66797	1270.90833	16.12035	1277.25110	1280.73511	15.89365	1412.40125	1285.92065	5.12810	1532.73340	1341.13940	-68.51614	1197.82019	1280.58997	145.31682	1357.40039	1289.75842	18.03658	1375.15417	1596.00049	-30.61771	1401.11084	1584.40991	99.68240	1450.67163	1570.49951	-102.18719	1449.71826	1562.15076	163.71492	1544.49329	1404.13586	335.86557	1521.10156	1440.91870	488.93073	1499.29382	1409.91345	596.68268	1492.90039	1461.36292	732.46490	1476.22583	1484.48889	788.26532	1421.68481	1449.62305	757.73151	1454.01526	1558.81519	790.86841	1473.07715	1490.14368	-168.89481	1552.09705	1435.75806	-346.73260	1502.88098	1415.97351	-449.52884	1486.12366	1402.03528	-598.63873	1470.13831	1445.61499	-713.97760	1453.63696	1458.68958	-777.99689	1404.62915	1436.19727	-758.77631	1448.96118	1534.72803	-787.48718	1455.41284	1468.69666	213.27528	738.06372	1466.51733	202.61420	578.17822	1416.33838	225.11378	337.03824	1348.35339	200.88605	147.24025	1339.88635	133.27985	50.99601	1269.91846	222.41469	55.07231	1443.92395	173.04497	46.54137	1542.79285	-255.88071	776.73792	1457.81213	-249.10732	551.13385	1434.12097	-271.21799	402.79468	1377.16907	-247.99754	151.56551	1351.58826	-173.85464	52.06982	1263.61108	-276.98892	53.35953	1437.58960	-221.99657	54.36314	1529.10217	-17.29528	1781.34497	1466.01709	51.35511	1715.79846	1594.01416	69.65762	1655.93933	1417.09851	-70.88100	1703.56750	1583.53955	-79.08116	1638.27869	1410.84460	
198	1.642	12.90778	1104.12585	1286.62109	108.24758	1008.38922	1564.81653	108.69936	1070.27771	1286.56506	-162.71217	1028.91675	1535.30603	-115.41850	1069.67004	1270.85681	16.12035	1277.25110	1280.73511	15.43320	1412.32727	1285.89490	4.91598	1532.84204	1341.35864	-68.69123	1197.83313	1280.96570	144.78505	1357.30310	1289.59814	17.84954	1375.18628	1596.27063	-30.72598	1400.88794	1584.46411	99.68350	1450.72302	1570.77112	-102.23423	1449.64185	1562.25720	163.46996	1544.35510	1404.21997	335.77213	1521.04309	1441.04053	488.86823	1499.16992	1410.10901	596.71387	1492.76941	1461.46021	732.15155	1475.91272	1484.52124	787.97589	1421.60693	1449.78357	757.69122	1453.72437	1558.74060	790.67487	1472.89404	1490.21960	-169.01637	1552.00244	1435.83264	-346.95615	1502.68164	1416.27087	-449.71365	1485.84521	1402.31543	-598.75671	1469.75964	1446.06287	-714.17645	1453.25208	1459.33484	-778.13947	1404.44653	1436.65454	-758.63770	1448.27917	1534.72327	-787.62988	1454.65918	1469.49561	213.03690	737.67749	1466.26636	202.39676	578.07837	1416.32886	225.08031	336.99713	1348.39380	200.97684	147.42596	1339.65222	133.16251	50.97385	1269.96973	222.41861	55.00518	1444.05566	173.31682	46.61492	1542.88135	-255.97949	776.62390	1457.73022	-249.08867	551.05310	1434.23938	-271.19476	402.73651	1377.23401	-247.67091	151.39041	1351.39600	-173.86551	52.11008	1263.56921	-276.98892	53.35953	1437.58960	-222.01421	54.28273	1529.16980	-17.46524	1781.33228	1466.13940	51.42007	1715.80286	1594.10803	69.61488	1656.04675	1417.29370	-70.77307	1703.52649	1583.87891	-79.40366	1638.38232	1411.40625	
199	1.650	12.48753	1104.35474	1286.89038	108.21307	1008.33911	1564.81140	108.59161	1070.37805	1286.60303	-162.75470	1028.82373	1535.30396	-115.47549	1069.75818	1271.06604	15.84561	1277.22021	1280.84961	15.43320	1412.32727	1285.89490	4.57844	1532.69446	1341.47229	-68.82561	1197.79248	1281.01343	144.63004	1357.19885	1289.74048	17.77596	1375.03992	1596.67407	-30.73984	1400.84363	1584.65881	99.44703	1450.62000	1570.84680	-102.28643	1449.52698	1562.30261	163.48085	1544.37219	1404.31812	335.59109	1520.85522	1441.24341	488.72095	1499.18384	1410.12659	596.60791	1492.73901	1461.64319	732.11298	1475.84351	1484.66223	788.39929	1421.43420	1449.69592	757.56036	1453.55518	1558.69910	790.44373	1472.52319	1490.06555	-169.03670	1551.96741	1436.11743	-347.11252	1502.60901	1416.45276	-449.75552	1485.61609	1402.34509	-598.94659	1469.22131	1446.57300	-714.29517	1452.71472	1459.53613	-778.37024	1403.80957	1436.76843	-758.59601	1447.64490	1535.43237	-787.73553	1454.18640	1469.70813	213.01595	737.84564	1466.29028	202.37537	578.07471	1416.32385	225.06117	337.03067	1348.33813	200.67656	147.23628	1339.69775	133.16251	50.97385	1269.96973	222.39726	55.03458	1443.99316	173.55492	46.83471	1543.04993	-256.16959	776.69421	1457.76685	-249.09882	551.00201	1434.27478	-271.28925	402.59714	1377.23975	-247.72656	151.32733	1351.44727	-173.85495	52.14514	1263.52344	-276.98892	53.35953	1437.58960	-222.01421	54.28273	1529.16980	-17.62292	1781.43530	1466.32483	51.53706	1715.88635	1594.66028	69.17802	1655.80615	1417.18591	-71.05061	1703.49951	1583.97729	-79.64597	1638.29102	1411.58057	
200	1.658	12.48753	1104.35474	1286.89038	108.12510	1008.30920	1564.88489	108.50664	1070.48499	1286.52490	-162.94681	1028.80945	1535.47217	-115.52606	1069.76025	1271.01465	15.39642	1277.01013	1281.16663	15.44944	1412.25500	1286.21570	4.56391	1532.59351	1341.67346	-68.93698	1197.70325	1281.42639	144.63004	1357.19885	1289.74048	17.80872	1375.09460	1596.96240	-30.81637	1400.70789	1584.66187	99.41697	1450.59937	1570.89844	-102.31148	1449.31079	1562.50757	163.28833	1544.41125	1404.29138	335.53754	1520.78540	1441.29211	488.45401	1499.12695	1410.24377	596.49670	1492.61133	1461.85181	731.95294	1475.50720	1484.68286	788.43317	1421.30627	1449.73511	757.48920	1453.33386	1558.65100	790.65936	1472.15662	1490.06787	-169.18402	1551.97791	1436.27124	-347.23105	1502.40051	1416.64648	-449.93625	1485.39258	1402.92456	-599.07935	1468.93140	1446.79749	-714.46112	1451.91016	1459.71777	-778.85181	1403.02844	1436.87000	-759.15222	1447.15649	1535.69153	-787.83197	1453.65247	1470.08826	212.93018	737.79547	1466.36340	202.34151	578.13629	1416.22290	224.97519	337.03519	1348.30994	200.68707	147.14586	1339.79114	133.21062	51.02414	1269.96021	222.35378	54.98030	1444.02319	173.15279	46.39659	1542.72583	-256.19901	776.64526	1457.76392	-249.10873	550.91187	1434.33972	-271.51187	402.75345	1377.29785	-247.67091	151.39041	1351.39600	-173.85495	52.14514	1263.52344	-276.95087	53.30285	1437.63684	-222.03069	54.31554	1529.11560	-17.56093	1781.41919	1466.46545	51.52474	1715.83679	1594.80640	69.11746	1655.87158	1417.38989	-71.15492	1703.52856	1584.15125	-79.69009	1638.41443	1411.66211	
201	1.667	12.48753	1104.35474	1286.89038	107.98729	1008.27417	1564.92151	108.41763	1070.55261	1286.54980	-163.07826	1028.75708	1535.50977	-115.45083	1069.79651	1271.17627	15.26198	1276.99597	1281.24792	15.40656	1412.28821	1286.34143	4.50273	1532.58899	1341.74951	-69.17444	1197.84814	1281.42944	144.55861	1357.38635	1289.68872	17.86408	1375.16455	1597.27844	-30.97819	1400.48242	1584.83960	99.47523	1450.56311	1570.84351	-102.28891	1449.30872	1562.63293	163.24373	1544.39685	1404.33008	335.29819	1520.63477	1441.30322	488.28156	1499.11926	1410.29297	596.42053	1492.30237	1461.70251	731.79352	1475.34204	1484.66211	788.32111	1420.98608	1449.92297	757.28796	1453.17517	1558.56421	790.61151	1471.93518	1490.06506	-169.30104	1551.95947	1436.45154	-347.29150	1502.20471	1416.78247	-450.11884	1485.22925	1403.25623	-599.00983	1468.52527	1447.08350	-714.43378	1451.47510	1460.41003	-779.09290	1402.57971	1437.25256	-759.14624	1446.66772	1536.13110	-788.10492	1452.80078	1470.40259	212.80974	737.76630	1466.15576	202.32364	578.15021	1416.19507	224.93968	337.06061	1348.25745	200.71519	147.29939	1339.61707	133.16251	50.97385	1269.96973	222.37108	54.94935	1444.08374	173.15279	46.39659	1542.72583	-256.23508	776.81964	1457.87866	-249.16183	550.90015	1434.32312	-271.47470	402.72485	1377.37524	-247.72656	151.32733	1351.44727	-173.85495	52.14514	1263.52344	-277.03555	53.41298	1437.55530	-221.99657	54.36314	1529.10217	-17.77760	1781.27979	1466.90125	51.57050	1715.76025	1595.30273	68.75301	1655.83740	1417.52722	-71.25610	1703.48962	1584.49890	-79.80270	1638.25732	1411.80688	
202	1.675	12.19384	1104.23743	1286.97522	107.96037	1008.24219	1564.94739	108.41763	1070.55261	1286.54980	-163.24449	1028.86780	1535.73157	-116.02546	1069.94385	1271.25537	14.87636	1276.95361	1281.18530	14.96264	1412.18518	1286.80017	4.02183	1532.53479	1342.03674	-69.44114	1197.67896	1281.59351	144.57109	1357.55615	1289.80811	17.84005	1375.11157	1597.32910	-31.00267	1400.33398	1585.05933	99.34997	1450.51685	1570.85254	-102.48732	1449.55713	1563.20837	163.04953	1544.49573	1404.41016	335.24496	1520.57117	1441.40662	488.16763	1499.10022	1410.32910	596.29181	1492.14063	1461.64807	731.53320	1474.93579	1484.39404	787.94293	1420.71826	1449.83020	757.16858	1452.75122	1558.53857	790.54633	1471.77869	1490.06909	-169.70935	1551.93994	1436.91064	-347.67932	1501.90466	1417.14429	-450.26035	1484.98438	1403.51343	-599.36780	1468.10535	1447.29370	-714.73187	1450.86877	1460.65845	-778.49689	1402.00244	1437.36499	-759.25977	1445.97681	1536.46143	-788.22772	1452.25867	1470.87756	212.82979	737.79675	1466.10938	202.32364	578.15021	1416.19507	224.88510	337.12491	1348.17615	200.76027	147.35806	1339.54065	133.16251	50.97385	1269.96973	222.41469	55.07231	1443.92395	173.15279	46.39659	1542.72583	-256.24167	776.70355	1458.04883	-249.16183	550.90015	1434.32312	-271.52811	402.69717	1377.37732	-248.05318	151.50243	1351.63953	-173.85495	52.14514	1263.52344	-276.98892	53.35953	1437.58960	-222.03069	54.31554	1529.11560	-17.78122	1781.19141	1467.01477	51.50624	1715.72278	1595.35681	68.52226	1655.74585	1417.90320	-71.18618	1703.61304	1584.68420	-79.87646	1638.25146	1412.09204	
